<?xml version="1.0" standalone="no"?>
<!DOCTYPE svg PUBLIC "-//W3C//DTD SVG 20010904//EN"
 "http://www.w3.org/TR/2001/REC-SVG-20010904/DTD/svg10.dtd">
<svg version="1.0" xmlns="http://www.w3.org/2000/svg"
 width="765.000000pt" height="765.000000pt" viewBox="0 0 765.000000 765.000000"
 preserveAspectRatio="xMidYMid meet">
<metadata>
Created by potrace 1.14, written by Peter Selinger 2001-2017
</metadata>
<g transform="translate(0.000000,765.000000) scale(0.100000,-0.100000)"
fill="#000000" stroke="none">
<path d="M2139 7646 c-3 -3 -51 -9 -159 -21 -14 -1 -38 -5 -55 -8 -16 -4 -43
-9 -60 -12 -88 -15 -161 -34 -301 -80 -164 -54 -431 -182 -494 -237 -11 -10
-20 -16 -20 -13 0 7 -162 -108 -200 -142 -8 -7 -42 -37 -74 -66 -73 -64 -113
-104 -190 -188 -66 -73 -196 -244 -196 -258 0 -5 -4 -11 -9 -13 -22 -8 -198
-343 -217 -413 -1 -5 -19 -55 -38 -110 -20 -55 -38 -109 -40 -120 -2 -11 -11
-47 -19 -80 -9 -33 -18 -76 -21 -95 -3 -19 -7 -44 -10 -55 -3 -20 -9 -57 -23
-170 -10 -76 -11 -3388 -1 -3475 14 -125 19 -156 43 -265 36 -165 100 -366
140 -445 8 -14 34 -68 60 -120 105 -213 263 -428 440 -601 73 -70 88 -84 150
-134 20 -16 46 -38 58 -48 29 -24 202 -139 252 -167 143 -81 365 -179 365
-162 0 4 4 2 8 -4 7 -11 171 -63 267 -84 111 -25 245 -44 322 -44 24 -1 43 -4
43 -9 0 -9 3347 -3 3415 6 69 10 226 36 250 41 134 28 307 82 392 121 17 8 33
15 36 15 26 0 242 116 362 194 160 105 445 357 437 387 -1 5 2 8 7 7 28 -8
233 280 328 462 93 178 180 419 207 575 3 17 8 43 12 58 7 33 7 33 28 192 15
107 16 297 13 1795 -1 921 -6 1691 -9 1710 -4 19 -9 58 -12 85 -2 28 -7 62
-10 75 -3 14 -8 37 -10 53 -3 15 -7 35 -10 45 -3 9 -7 28 -10 42 -2 14 -9 45
-16 70 -7 25 -14 52 -15 60 -5 22 -60 179 -80 225 -59 144 -165 334 -254 460
-91 127 -217 267 -342 380 -61 55 -71 63 -144 118 -27 20 -54 40 -60 45 -5 4
-30 21 -55 37 -141 93 -307 176 -485 245 -105 41 -314 94 -435 110 -41 6 -91
13 -110 17 -36 7 -3443 16 -3451 9z"/>
</g>
</svg>
